<svg version="1.1" xmlns="http://www.w3.org/2000/svg" viewBox="-1418.1566024555505 -4071.9495822892563 8433.498407322053 8434.30509035554"><desc>Created with Snap</desc><defs></defs><g><rect x="-1418.1566024555505" y="-4071.9495822892563" width="8433.498407322053" height="8434.30509035554" fill="#007c2f" style=""></rect><g transform="matrix(20.2245,0,0,20.2245,-1246.3028,-3899.6925)">
<g id="gSm02jv0ce2p2">
	<g>
		<path fill="#ffffff" d="M82.06866,46.80432c0.44048,0.09728,1.81986-0.49205,3.98136-1.64856
			c2.20975-1.09238,5.2579-2.67703,8.94401-4.68989c7.51703-3.80428,17.93356-8.86331,30.43024-13.1756
			c12.47414-4.32378,26.96772-7.99401,42.01273-9.6109c1.87662-0.19844,3.75923-0.39779,5.64507-0.59735
			c1.88943-0.14902,3.78758-0.23685,5.67796-0.35662c3.77602-0.30159,7.57491-0.23849,11.32912-0.3126
			c1.87773-0.03781,3.75569,0.09517,5.61867,0.13513c1.86383,0.08778,3.71739,0.06724,5.55797,0.24432
			c3.67995,0.31842,7.31462,0.49835,10.86098,1.02225c-24.46938,0.31527-45.84834,5.87472-62.983,13.23676
			c-8.58604,3.71305-16.09875,8.00225-22.67894,12.26207c-3.22648,2.26534-6.32965,4.31355-9.06628,6.60401
			c-1.37437,1.11085-2.71513,2.19456-4.02266,3.25142c-1.23869,1.13261-2.44566,2.23617-3.62017,3.31003
			c-9.26917,8.664-14.87678,16.66336-17.84011,22.57063c-2.84336,6.059-3.17654,9.94636-1.23619,11.60844
			c12.396-15.45393,28.45402-29.09509,47.43205-39.08565c18.9328-10.01645,40.72635-16.36285,63.47681-17.78591
			c22.73022-1.48197,46.37234,1.87225,68.61374,10.25464c11.11929,4.17942,21.8819,9.59661,32.00284,16.15094
			c10.12143,6.55412,19.58212,14.25672,28.18671,22.87717c17.22528,17.23357,30.80743,38.36257,39.42282,61.36801
			c8.65921,22.994,12.38708,47.78455,11.09464,72.0957c-1.24237,24.32739-7.58545,48.12822-18.00375,69.4503
			c-10.38284,21.37689-24.93945,40.10056-41.69687,55.30795c-8.38907,7.61682-17.36337,14.36597-26.70444,20.18491
			c-9.34406,5.82074-19.09393,10.61557-28.94733,14.54181c-9.86093,3.9166-19.85266,6.91727-29.78415,9.08392
			c-9.94624,2.10358-19.82362,3.32999-29.4743,3.85846c-9.65497,0.57462-19.08638,0.22992-28.16501-0.64651
			c-1.13516-0.11664-2.26575-0.23282-3.39136-0.34888c-1.12697-0.11121-2.24884-0.22696-3.3564-0.41266
			c-2.22144-0.33698-4.42419-0.67114-6.60777-1.00272c-2.18347-0.34042-4.3194-0.83633-6.45241-1.24716
			c-1.0649-0.21622-2.12482-0.43161-3.18013-0.64587c-1.05194-0.22882-2.08591-0.51355-3.12253-0.76712
			c-2.06961-0.52557-4.12024-1.04596-6.15103-1.56174c-2.00519-0.61169-3.99089-1.21768-5.95718-1.81741
			c-0.98251-0.30374-1.9601-0.60596-2.93306-0.90634c-0.95847-0.3439-1.91188-0.68619-2.86023-1.02689
			c-1.89658-0.68607-3.77393-1.36462-5.63077-2.03653c-7.32208-2.95859-14.25258-6.03729-20.57684-9.50757
			c-12.72123-6.81235-23.36193-14.39328-32.06516-21.69196c-2.17656-1.82785-4.29309-3.57358-6.18667-5.40707
			c-1.91791-1.80673-3.80501-3.49908-5.5228-5.21066c-3.36911-3.48929-6.50893-6.61322-9.06343-9.67181
			c-1.30597-1.50275-2.53819-2.92072-3.69509-4.25165c-1.09204-1.3862-2.11286-2.68185-3.06096-3.88477
			c-0.945-1.20602-1.81723-2.31924-2.61518-3.33749c-0.77715-1.03403-1.43549-2.00656-2.04808-2.85944
			c-2.41859-3.43576-3.70066-5.25714-3.74636-5.32217c-5.46113-8.26123-10.29185-16.883-14.46608-25.78323
			c-4.16677-8.90799-7.4951-18.15073-10.23626-27.52586c-2.76757-9.37598-4.63573-18.97604-5.88218-28.62491
			c-0.68911-4.82196-0.98716-9.67961-1.33614-14.5295l-0.20802-7.29013c-0.05188-1.21474-0.04251-2.42969-0.00855-3.6449
			l0.07005-3.64503c0.42722-19.44357,3.96095-38.7907,10.20834-57.30516c3.20473-9.23248,7.07828-18.25121,11.59234-26.98227
			c4.59464-8.69124,9.87891-17.03811,15.72216-25.0221c0.69774-0.90845,2.08265-2.71173,3.77679-4.91772
			c0.42325-0.55247,0.86528-1.12967,1.32112-1.72482c0.48035-0.5741,0.97521-1.16545,1.47757-1.76587
			c1.00593-1.20171,2.04324-2.44109,3.06269-3.65897c1.98835-2.48425,4.12689-4.67604,5.64749-6.44722
			c1.54144-1.75171,2.56507-2.98889,2.63037-3.26817l-0.00708,0.00397c-17.48207,17.50659-31.66323,38.43564-41.30956,61.28998
			c-9.67891,22.84109-14.85973,47.53831-15.24643,72.3043c-0.40845,24.76634,3.97346,49.61223,12.90819,72.75127
			c8.90224,23.14932,22.40002,44.53232,39.34857,62.56775c16.89465,18.05338,37.32344,32.93442,59.85665,43.33493
			c22.51597,10.43509,47.04972,16.40039,71.79456,17.58765c24.74609,1.20511,49.72084-2.37305,73.14037-10.55167
			c23.42676-8.14722,45.24942-20.94238,63.81384-37.33554c18.55795-16.34717,34.06335-36.25995,45.19333-58.44409
			c11.15619-22.16071,17.92752-46.4855,19.90485-71.17728c1.99942-24.6918-0.77719-49.75745-8.18207-73.42302
			c-7.37558-23.67151-19.42508-45.90224-35.18915-65.02438c-15.71448-19.13124-35.16812-35.17571-56.96564-47.04198
			c-21.789-11.86739-45.88651-19.42662-70.50345-22.19782c-24.61627-2.79403-49.7552-0.82467-73.64371,5.80912
			c-23.89274,6.60539-46.50471,17.92143-66.11643,33.08085L82.06866,46.80432z" style=""></path>
	</g>
</g>


<desc>Created with Snap</desc><defs></defs></g><g><g transform="matrix(1.024,0,0,-1.024,0,0)"><path d="M922 -2L921 -6Q914 -6 898 -5Q882 -4 865 -3Q848 -2 832 -1Q816 0 809 0L750 0Q743 0 727 -1Q711 -2 694 -3Q677 -4 661 -5Q645 -6 638 -6L635 -2L638 36L642 40L653 40Q682 40 698 49Q715 59 715 88L693 415Q691 438 690 455Q690 472 686 492Q680 474 667 441Q654 408 637 365Q621 323 602 275Q583 227 564 179Q545 132 528 88Q512 45 500 13L418 13L243 489Q243 465 241 449Q239 434 237 410L225 246Q223 213 221 191Q220 170 219 155Q219 140 219 129Q219 118 219 107Q219 78 225 67Q232 56 240 50Q248 42 258 41Q269 40 285 40L289 36L292 -2L290 -6Q283 -6 269 -5Q256 -4 242 -3Q228 -2 214 -1Q201 0 194 0L135 0Q128 0 112 -1Q97 -2 79 -3Q62 -4 46 -5Q31 -6 24 -6L22 -2L25 36L31 40Q46 40 60 41Q74 43 84 50Q92 57 100 68Q108 79 113 107Q115 119 118 140Q121 161 125 211L139 394Q142 429 143 453Q145 477 145 494Q146 511 146 523Q147 535 147 547Q147 576 138 587Q130 598 122 604Q113 612 99 613Q85 614 69 614L64 618L61 656L63 660Q70 660 86 659Q102 658 119 657Q136 656 152 655Q168 654 175 654L252 654Q259 654 270 655Q282 656 292 658L297 655Q298 641 304 616Q311 591 320 561Q330 531 342 497Q354 464 366 432L429 270Q440 243 451 213Q462 183 471 156Q474 160 487 191Q500 222 518 268Q536 314 556 369Q577 425 595 479Q614 533 627 579Q641 626 645 654L650 658Q658 656 667 655Q676 654 684 654L770 654Q777 654 793 655Q809 656 826 657Q843 658 859 659Q875 660 882 660L884 656L881 618L876 614Q861 614 846 612Q832 611 823 604Q815 598 806 586Q798 574 798 547Q798 533 798 521Q798 509 799 493Q800 477 801 454Q803 431 806 395L818 251Q821 215 823 192Q825 170 826 155Q828 140 829 129Q830 119 832 107Q836 78 844 67Q852 56 860 50Q869 42 883 41Q898 40 914 40L919 36L922 -2ZM1598 0L1495 -5L1483 -1L1424 162Q1412 194 1402 222Q1393 250 1380 282Q1373 262 1366 242Q1359 222 1353 205Q1347 188 1342 175Q1338 162 1337 158L1286 0L1183 -5L1173 0L1103 160Q1098 170 1089 190Q1081 211 1070 236Q1060 261 1048 289Q1036 317 1024 342Q1014 363 1004 380Q994 396 981 405Q969 414 948 416L942 421L942 455L946 459Q963 457 982 455Q1001 453 1017 453L1096 453Q1111 453 1132 455Q1154 457 1172 459L1176 455L1176 423L1172 419Q1153 417 1139 407Q1126 398 1126 380Q1126 368 1134 339Q1143 310 1154 278Q1165 246 1175 217Q1186 189 1190 179L1234 74L1272 179Q1282 206 1291 236Q1300 266 1306 293Q1313 321 1317 344Q1321 367 1321 380Q1321 391 1315 398Q1309 405 1301 409Q1293 413 1284 414Q1276 416 1270 416L1264 421L1264 455L1268 459Q1285 457 1304 455Q1323 453 1339 453L1418 453Q1433 453 1454 455Q1476 457 1494 459L1498 455L1498 423L1494 419Q1475 417 1461 407Q1448 398 1448 380Q1448 368 1456 339Q1464 310 1474 278Q1484 246 1493 217Q1503 189 1507 179L1546 74L1586 179Q1593 197 1603 223Q1614 249 1623 277Q1633 305 1639 332Q1646 359 1646 380Q1646 402 1631 409Q1616 417 1599 419L1595 423L1595 455L1599 459Q1618 455 1635 454Q1652 453 1667 453L1748 453Q1765 453 1781 455Q1798 457 1817 459L1821 455L1821 421L1815 416Q1798 414 1785 405Q1773 397 1762 380Q1745 353 1726 315Q1708 277 1691 239Q1675 202 1662 171Q1650 140 1646 128L1598 0ZM2136 -3L2130 7Q2133 16 2134 33Q2136 50 2139 64L2138 67Q2126 52 2110 38Q2095 24 2076 13Q2057 2 2035 -5Q2014 -11 1990 -11Q1954 -11 1927 0Q1900 11 1882 29Q1864 47 1854 71Q1845 95 1845 121Q1845 160 1862 189Q1879 218 1907 236Q1933 253 1968 262Q2003 272 2036 277Q2069 282 2096 283Q2123 285 2132 285L2146 285Q2145 316 2142 333Q2139 351 2134 363Q2125 383 2104 391Q2084 400 2056 400Q2039 400 2019 397Q2000 395 1983 388Q1966 381 1953 368Q1941 356 1939 336L1935 333L1903 333L1894 427L1897 433Q1903 439 1920 446Q1937 453 1961 459Q1985 466 2013 470Q2042 475 2071 475Q2110 475 2144 465Q2178 456 2202 437Q2227 418 2241 389Q2255 361 2255 323Q2255 282 2254 253Q2254 224 2253 199Q2252 174 2251 150Q2251 127 2251 98Q2253 75 2256 65Q2259 55 2266 49Q2274 41 2290 39Q2307 38 2321 38L2324 34L2326 0L2325 -4Q2308 -2 2286 -1Q2264 0 2245 0Q2217 0 2189 -1Q2161 -1 2136 -3ZM2130 115Q2133 120 2136 127Q2140 134 2141 144L2146 229L2137 229Q2106 229 2076 225Q2046 221 2022 210Q1998 199 1983 179Q1968 159 1968 127Q1968 100 1981 84Q1995 68 2018 68Q2035 68 2052 72Q2070 77 2085 84Q2100 91 2112 99Q2124 108 2130 115ZM2472 132L2472 136Q2421 156 2398 199Q2375 242 2375 294Q2375 331 2388 364Q2401 397 2425 421Q2450 446 2484 460Q2519 474 2563 474Q2589 474 2614 469Q2640 464 2659 455Q2701 456 2737 460Q2774 464 2806 473L2811 469L2804 394L2799 389L2724 397L2723 394Q2739 376 2748 346Q2757 316 2757 289Q2757 256 2744 226Q2732 196 2708 173Q2684 151 2648 137Q2612 124 2565 124Q2559 124 2549 124Q2540 125 2535 125Q2518 118 2509 106Q2501 94 2501 86Q2501 64 2548 58L2645 48Q2678 44 2706 34Q2735 24 2756 7Q2778 -9 2790 -33Q2802 -56 2802 -87Q2802 -116 2789 -146Q2776 -175 2750 -198Q2724 -220 2678 -234Q2632 -248 2572 -248Q2518 -248 2478 -237Q2439 -225 2412 -206Q2386 -186 2373 -162Q2360 -137 2360 -111Q2360 -69 2387 -37Q2415 -4 2458 9L2459 12Q2435 21 2420 34Q2406 48 2406 68Q2406 94 2427 110Q2448 126 2472 132ZM2567 193Q2587 193 2602 201Q2618 209 2629 222Q2640 235 2645 252Q2651 270 2651 289Q2651 309 2645 329Q2639 349 2628 365Q2617 382 2600 392Q2583 403 2561 403Q2540 403 2525 393Q2510 384 2499 369Q2489 354 2484 335Q2479 316 2479 298Q2479 279 2484 260Q2490 241 2501 226Q2512 211 2528 202Q2545 193 2567 193ZM2602 -29L2535 -22Q2513 -23 2497 -30Q2481 -37 2470 -49Q2459 -60 2453 -74Q2448 -87 2448 -100Q2448 -129 2483 -148Q2518 -166 2578 -166Q2632 -166 2669 -149Q2706 -131 2706 -97Q2706 -78 2697 -66Q2688 -54 2673 -47Q2658 -39 2639 -35Q2621 -31 2602 -29ZM3251 -3L3244 17Q3248 30 3250 51Q3252 72 3253 88Q3255 126 3256 164Q3257 202 3257 228Q3257 251 3256 278Q3255 305 3249 325Q3241 357 3215 372Q3189 388 3157 388Q3128 388 3103 377Q3079 366 3061 350Q3043 334 3033 317Q3023 300 3023 288Q3023 237 3023 207Q3023 178 3023 159Q3024 140 3024 127Q3025 115 3027 98Q3029 77 3035 66Q3041 56 3049 49Q3057 41 3068 39Q3079 38 3094 38L3099 33L3101 0L3099 -4Q3092 -4 3078 -3Q3064 -2 3048 -2Q3032 -1 3018 -1Q3004 0 2997 0L2943 0Q2936 0 2921 -1Q2907 -1 2891 -2Q2876 -2 2861 -3Q2847 -4 2840 -4L2839 0L2841 34L2844 38Q2860 38 2872 39Q2885 41 2893 49Q2901 56 2906 67Q2911 78 2913 98Q2914 110 2915 122Q2916 134 2916 150Q2917 167 2917 189Q2917 212 2917 244L2917 464Q2917 503 2917 530Q2917 557 2916 576Q2916 596 2915 611Q2915 627 2914 642Q2913 652 2907 660Q2902 669 2899 672Q2889 683 2872 686Q2856 690 2840 690L2836 694L2836 727L2840 731L2896 731Q2919 731 2945 731Q2971 732 2991 735L3026 740L3032 721Q3030 716 3029 704Q3028 693 3027 679Q3026 666 3026 653Q3026 641 3026 634Q3026 608 3024 574Q3023 540 3023 495Q3023 453 3022 420Q3022 387 3020 372L3023 370Q3035 388 3051 406Q3068 425 3088 440Q3109 456 3133 465Q3158 475 3186 475Q3217 475 3247 467Q3277 459 3301 442Q3326 425 3342 399Q3358 373 3363 337Q3366 311 3366 277Q3367 244 3367 223L3367 102Q3367 79 3373 66Q3379 54 3385 49Q3394 41 3408 39Q3422 38 3438 38L3441 34L3443 0L3441 -4Q3420 -2 3395 -1Q3370 0 3345 0Q3294 0 3251 -3ZM3770 -3L3764 7Q3767 16 3768 33Q3770 50 3773 64L3772 67Q3760 52 3744 38Q3729 24 3710 13Q3691 2 3669 -5Q3648 -11 3624 -11Q3588 -11 3561 0Q3534 11 3516 29Q3498 47 3488 71Q3479 95 3479 121Q3479 160 3496 189Q3513 218 3541 236Q3567 253 3602 262Q3637 272 3670 277Q3703 282 3730 283Q3757 285 3766 285L3780 285Q3779 316 3776 333Q3773 351 3768 363Q3759 383 3738 391Q3718 400 3690 400Q3673 400 3653 397Q3634 395 3617 388Q3600 381 3587 368Q3575 356 3573 336L3569 333L3537 333L3528 427L3531 433Q3537 439 3554 446Q3571 453 3595 459Q3619 466 3647 470Q3676 475 3705 475Q3744 475 3778 465Q3812 456 3836 437Q3861 418 3875 389Q3889 361 3889 323Q3889 282 3888 253Q3888 224 3887 199Q3886 174 3885 150Q3885 127 3885 98Q3887 75 3890 65Q3893 55 3900 49Q3908 41 3924 39Q3941 38 3955 38L3958 34L3960 0L3959 -4Q3942 -2 3920 -1Q3898 0 3879 0Q3851 0 3823 -1Q3795 -1 3770 -3ZM3764 115Q3767 120 3770 127Q3774 134 3775 144L3780 229L3771 229Q3740 229 3710 225Q3680 221 3656 210Q3632 199 3617 179Q3602 159 3602 127Q3602 100 3615 84Q3629 68 3652 68Q3669 68 3686 72Q3704 77 3719 84Q3734 91 3746 99Q3758 108 3764 115ZM4309 0L4206 -5L4196 0L4127 160Q4119 178 4112 192Q4106 206 4097 225Q4088 244 4076 271Q4064 298 4046 342Q4039 359 4036 365Q4033 372 4028 380Q4018 396 4005 405Q3993 414 3972 416L3966 421L3966 455L3970 459Q3987 457 4006 455Q4025 453 4041 453L4120 453Q4135 453 4156 455Q4178 457 4196 459L4200 455L4200 423L4196 419Q4177 417 4163 407Q4150 398 4150 381Q4150 369 4157 343Q4165 318 4175 289Q4186 260 4196 232Q4207 204 4213 188L4257 68L4307 189Q4313 204 4323 229Q4333 254 4343 281Q4353 309 4360 334Q4367 360 4367 376Q4367 402 4353 409Q4339 416 4320 419L4316 423L4316 455L4320 459Q4339 455 4356 454Q4373 453 4388 453L4469 453Q4486 453 4502 455Q4519 457 4538 459L4542 455L4542 421L4536 416Q4519 414 4506 406Q4494 399 4483 380Q4471 360 4452 322Q4434 285 4415 245Q4397 206 4382 172Q4368 139 4363 128L4309 0ZM4965 84L4962 86Q4935 43 4895 16Q4855 -11 4794 -11Q4766 -11 4739 -4Q4713 3 4691 18Q4670 33 4654 57Q4638 82 4631 117Q4629 126 4627 137Q4626 148 4625 165Q4625 183 4624 208Q4624 234 4624 272L4624 362Q4624 373 4619 384Q4614 395 4611 398Q4601 410 4586 412Q4571 414 4555 414L4552 418L4552 452L4555 455L4604 455Q4627 455 4653 455Q4679 456 4699 459L4734 464L4740 445Q4738 441 4737 430Q4736 420 4735 408Q4734 396 4734 385Q4734 374 4734 368Q4734 355 4733 336Q4733 318 4732 298Q4732 279 4731 261Q4731 243 4731 231Q4731 205 4733 178Q4735 152 4741 130Q4751 95 4771 78Q4792 62 4829 62Q4859 62 4882 72Q4906 82 4923 96Q4940 110 4951 126Q4962 143 4965 156L4965 256Q4965 302 4963 327Q4962 352 4960 366Q4958 379 4954 387Q4951 395 4948 398Q4937 410 4920 412Q4903 414 4893 414L4889 418L4889 452L4893 455L4911 455Q4921 455 4937 455Q4954 455 4972 455Q4990 456 5007 456Q5024 457 5036 459L5071 464L5077 445Q5072 416 5070 369Q5069 344 5068 328Q5068 313 5068 303Q5068 293 5068 287Q5068 282 5068 277L5068 195Q5068 140 5071 98Q5073 79 5076 67Q5079 56 5087 49Q5096 41 5108 39Q5120 38 5137 38L5141 34L5143 0L5141 -3Q5122 -1 5104 -1Q5086 0 5062 0Q5038 0 5011 -1Q4984 -1 4959 -3L4953 17Q4956 28 4959 46Q4963 65 4965 84ZM5444 0L5442 -4Q5435 -4 5421 -3Q5407 -2 5391 -2Q5375 -1 5361 -1Q5347 0 5340 0L5286 0Q5279 0 5264 -1Q5250 -1 5234 -2Q5219 -2 5204 -3Q5190 -4 5183 -4L5182 0L5184 34L5187 38Q5202 38 5218 39Q5234 41 5242 49Q5249 56 5252 67Q5255 78 5257 98Q5258 105 5258 112Q5259 119 5259 127Q5260 135 5260 146Q5260 157 5260 173L5260 562Q5260 581 5260 592Q5260 604 5259 612Q5259 620 5258 626Q5258 633 5257 642Q5255 652 5251 661Q5247 670 5244 673Q5234 686 5219 688Q5204 690 5188 690L5184 694L5184 728L5188 731L5239 731Q5262 731 5288 731Q5314 732 5334 735L5369 740L5375 721Q5373 717 5371 708Q5370 700 5369 690Q5369 681 5368 671Q5368 662 5368 656Q5368 648 5367 641Q5367 635 5367 626Q5367 618 5366 605Q5366 592 5366 573L5366 185Q5366 165 5366 152Q5367 140 5367 131Q5368 122 5368 114Q5369 107 5370 98Q5372 77 5374 66Q5377 56 5385 49Q5393 41 5407 39Q5422 38 5437 38L5442 33L5444 0Z" fill="#ffffff" style=""></path></g></g><g transform="matrix(1,0,0,1,1068.5441,1318.912)"><g transform="matrix(1.024,0,0,-1.024,0,0)"><path d="M280 0L278 -4Q271 -4 257 -3Q243 -2 227 -2Q211 -1 197 -1Q183 0 176 0L122 0Q115 0 100 -1Q86 -1 70 -2Q55 -2 40 -3Q26 -4 19 -4L18 0L20 34L23 38Q38 38 54 39Q70 41 78 49Q85 56 88 67Q91 78 93 98Q94 105 94 112Q95 119 95 127Q96 135 96 146Q96 157 96 173L96 562Q96 581 96 592Q96 604 95 612Q95 620 94 626Q94 633 93 642Q91 652 87 661Q83 670 80 673Q70 686 55 688Q40 690 24 690L20 694L20 728L24 731L75 731Q98 731 124 731Q150 732 170 735L205 740L211 721Q209 717 207 708Q206 700 205 690Q205 681 204 671Q204 662 204 656Q204 648 203 641Q203 635 203 626Q203 618 202 605Q202 592 202 573L202 185Q202 165 202 152Q203 140 203 131Q204 122 204 114Q205 107 206 98Q208 77 210 66Q213 56 221 49Q229 41 243 39Q258 38 273 38L278 33L280 0ZM775 293L767 255L743 237Q689 237 636 236Q584 235 529 235L447 235Q446 228 446 221Q446 215 446 209Q446 183 455 157Q464 131 483 110Q503 90 533 77Q563 65 606 65Q637 65 671 73Q706 82 736 96L753 89L753 53L743 42Q719 23 672 6Q626 -11 572 -11Q519 -11 475 6Q432 24 400 56Q369 88 351 132Q334 176 334 230Q334 285 352 330Q370 375 401 407Q433 439 475 457Q518 475 567 475Q593 475 625 468Q658 461 688 441Q718 422 742 386Q766 351 775 293ZM568 400Q519 400 489 370Q460 341 452 302L502 302Q537 302 571 303Q605 305 640 305Q653 305 659 312Q665 320 665 328Q665 358 636 379Q607 400 568 400ZM1139 103L1074 180L1019 102Q1012 91 1005 81Q999 71 999 61Q999 52 1007 45Q1015 38 1035 34L1039 30L1039 -2L1035 -5Q1014 -2 1001 -1Q988 0 971 0L891 0Q874 0 857 -2Q841 -4 821 -6L817 -2L817 32L822 38Q859 38 885 57Q912 77 935 109L1028 235L907 380Q894 395 879 404Q864 414 841 416L835 421L835 455L839 459Q856 457 876 455Q897 453 914 453L992 453Q1008 453 1028 455Q1049 457 1069 459L1073 455L1073 423L1069 419Q1044 414 1032 408Q1021 402 1021 391Q1021 377 1047 337L1093 282Q1128 337 1142 359Q1156 381 1156 386Q1156 405 1148 410Q1140 415 1117 419L1113 423L1113 455L1117 458Q1138 455 1151 454Q1164 453 1181 453L1261 453Q1278 453 1294 455Q1311 457 1331 459L1335 455L1335 421L1329 419Q1292 419 1265 397Q1239 376 1217 344L1139 228L1262 84Q1274 70 1297 56Q1321 43 1353 38L1359 33L1359 -1L1355 -5Q1338 -3 1317 -1Q1297 1 1280 1L1202 1Q1186 1 1165 -1Q1144 -3 1124 -5L1120 -1L1120 31L1124 35Q1158 38 1158 63Q1158 81 1139 103ZM1656 0L1654 -4Q1647 -4 1633 -3Q1619 -2 1603 -2Q1587 -1 1573 -1Q1559 0 1552 0L1498 0Q1491 0 1476 -1Q1462 -1 1446 -2Q1431 -2 1416 -3Q1402 -4 1395 -4L1394 0L1396 34L1399 38Q1414 38 1430 39Q1446 41 1454 49Q1461 56 1464 67Q1467 78 1469 98Q1470 105 1470 112Q1471 119 1471 127Q1472 135 1472 146Q1472 157 1472 173L1472 286Q1472 305 1472 316Q1472 328 1471 336Q1471 344 1470 350Q1470 357 1469 366Q1467 376 1463 385Q1459 394 1456 397Q1446 410 1431 412Q1416 414 1400 414L1396 418L1396 452L1400 455L1451 455Q1474 455 1500 455Q1526 456 1546 459L1581 464L1587 445Q1585 441 1583 432Q1582 424 1581 414Q1581 405 1580 395Q1580 386 1580 380Q1580 372 1579 365Q1579 359 1579 350Q1579 342 1578 329Q1578 316 1578 297L1578 185Q1578 165 1578 152Q1579 140 1579 131Q1580 122 1580 114Q1581 107 1582 98Q1584 77 1586 66Q1589 56 1597 49Q1605 41 1619 39Q1634 38 1649 38L1654 33L1656 0ZM1451 613Q1451 625 1456 637Q1461 649 1470 658Q1479 668 1490 673Q1502 679 1515 679Q1540 679 1560 658Q1581 638 1581 613Q1581 600 1575 588Q1570 577 1560 568Q1551 559 1539 554Q1527 549 1515 549Q1489 549 1470 568Q1451 587 1451 613ZM2120 323L2089 323L2085 326Q2085 349 2071 363Q2058 378 2039 386Q2020 394 1998 397Q1977 400 1961 400Q1925 400 1898 386Q1871 372 1854 349Q1837 326 1828 296Q1820 266 1820 234Q1820 200 1829 169Q1839 138 1858 114Q1877 90 1906 75Q1936 61 1976 61Q2010 61 2048 68Q2086 75 2116 91L2133 67L2118 39Q2107 31 2089 22Q2072 14 2050 6Q2028 -1 2002 -6Q1977 -11 1952 -11Q1903 -11 1858 6Q1814 24 1780 55Q1747 87 1727 131Q1707 176 1707 230Q1707 285 1727 330Q1747 375 1782 407Q1817 439 1863 457Q1910 475 1963 475Q1987 475 2011 471Q2036 468 2058 463Q2081 458 2099 451Q2117 445 2128 439L2131 430L2120 323ZM2449 475Q2508 475 2554 454Q2600 434 2631 399Q2663 365 2679 320Q2696 275 2696 227Q2696 181 2681 138Q2666 95 2635 62Q2604 29 2558 9Q2512 -11 2451 -11Q2388 -11 2341 10Q2294 31 2263 65Q2233 99 2218 142Q2203 186 2203 232Q2203 281 2220 325Q2237 369 2268 402Q2300 436 2345 455Q2391 475 2449 475ZM2450 58Q2481 58 2504 72Q2528 87 2544 110Q2560 134 2567 164Q2575 195 2575 227Q2575 258 2566 289Q2558 321 2541 346Q2525 371 2501 387Q2477 403 2446 403Q2414 403 2390 388Q2367 373 2352 349Q2337 325 2329 295Q2322 265 2322 234Q2322 202 2330 171Q2339 140 2355 114Q2372 89 2396 73Q2420 58 2450 58ZM2942 375L2945 373Q2968 417 3008 446Q3048 475 3102 475Q3133 475 3163 467Q3193 459 3217 442Q3242 425 3258 398Q3275 372 3280 336Q3283 310 3283 281Q3284 252 3284 223Q3285 189 3285 160Q3285 132 3285 98Q3285 75 3290 63Q3296 52 3304 48Q3315 42 3327 40Q3340 38 3356 38L3359 34L3361 0L3359 -4Q3338 -2 3312 -1Q3287 0 3263 0Q3239 0 3215 -1Q3191 -1 3170 -3L3163 17Q3166 30 3168 56Q3171 82 3172 98Q3174 136 3175 169Q3176 202 3176 228Q3176 251 3175 278Q3174 305 3168 325Q3160 357 3135 372Q3111 388 3079 388Q3049 388 3024 377Q2999 366 2981 350Q2964 335 2954 318Q2944 301 2944 288L2944 185Q2944 165 2944 152Q2944 140 2944 131Q2945 122 2945 114Q2946 107 2947 98Q2949 77 2955 66Q2962 56 2970 49Q2978 41 2989 39Q3000 38 3015 38L3020 33L3022 0L3020 -4Q3013 -4 2999 -3Q2985 -2 2969 -2Q2953 -1 2939 -1Q2925 0 2918 0L2863 0Q2856 0 2841 -1Q2827 -1 2811 -2Q2796 -2 2781 -3Q2767 -4 2760 -4L2759 0L2761 34L2764 38Q2780 38 2792 39Q2805 41 2813 49Q2820 56 2826 67Q2832 78 2834 98Q2835 105 2835 112Q2836 119 2836 127Q2837 135 2837 146Q2837 157 2837 173L2837 276Q2837 295 2837 308Q2837 321 2836 331Q2836 341 2835 349Q2835 357 2834 366Q2832 376 2828 385Q2824 394 2821 397Q2811 410 2796 412Q2781 414 2765 414L2761 418L2761 452L2765 455L2816 455Q2839 455 2865 455Q2892 456 2912 459L2947 464L2953 445Q2945 434 2943 414Q2942 395 2942 375Z" fill="#ffffff" style=""></path></g></g></g></svg>